<?xml version="1.0" encoding="utf-8"?>
<!-- Svg Vector Icons : http://www.onlinewebfonts.com/icon -->
<!DOCTYPE svg PUBLIC "-//W3C//DTD SVG 1.1//EN" "http://www.w3.org/Graphics/SVG/1.1/DTD/svg11.dtd">
<svg version="1.1" xmlns="http://www.w3.org/2000/svg" xmlns:xlink="http://www.w3.org/1999/xlink" x="0px" y="0px" viewBox="0 0 1000 1000" enable-background="new 0 0 1000 1000" xml:space="preserve">
<metadata> Svg Vector Icons : http://www.onlinewebfonts.com/icon </metadata>
<g><g transform="translate(0.000000,511.000000) scale(0.100000,-0.100000)"><path d="M4554.2,4999.7c-474.2-48.9-946.2-161.6-1339.6-319C1556,4019.4,407.8,2571.4,139.9,800.1c-53.2-348.7-53.2-1027,0-1382.1c327.5-2175.3,1992.4-3842.4,4169.8-4169.8c353-53.2,1029.2-53.2,1382.2,0c2177.4,327.5,3842.4,1992.4,4169.8,4169.8c27.7,182.9,38.3,378.5,38.3,691.1c0,312.6-10.6,508.2-38.3,691.1C9619.3,2411.9,8634.8,3774.9,7191,4500c-455,227.5-976,391.3-1488.5,467.8C5432.5,5008.2,4800.9,5025.2,4554.2,4999.7z M5532.4,4519.1c2032.8-236,3663.8-1867,3899.8-3899.8c197.8-1696.8-563.5-3332-1988.2-4267.7c-1480-969.6-3406.5-969.6-4886.4,0C920.3-2572.3,176-579.9,705.5,1308.3c367.9,1309.9,1341.8,2396.4,2611.2,2915.3c384.9,157.4,891,280.7,1290.7,314.7C4837.1,4559.5,5275.1,4548.9,5532.4,4519.1z"/><path d="M3797.3,540.7l-1275.8-1867l1237.6-6.4c682.6-2.1,1801.1-2.1,2490,0l1252.4,6.4L6302.2,534.3c-659.2,1022.8-1203.6,1862.7-1212,1867C5081.6,2403.4,4499,1565.6,3797.3,540.7z"/></g></g>
</svg>